<svg width="17" height="17" viewBox="0 0 17 17" fill="none" xmlns="http://www.w3.org/2000/svg">
<path d="M2.255 17.006H14.121C14.7189 17.0055 15.2922 16.7677 15.7149 16.3449C16.1377 15.9222 16.3755 15.3489 16.376 14.751V3.515C16.3755 2.9171 16.1377 2.34384 15.7149 1.92106C15.2922 1.49828 14.7189 1.26053 14.121 1.26H13.227V0.63C13.227 0.462914 13.1606 0.302671 13.0425 0.184523C12.9243 0.0663748 12.7641 0 12.597 0C12.4299 0 12.2697 0.0663748 12.1515 0.184523C12.0334 0.302671 11.967 0.462914 11.967 0.63V1.26H4.412V0.63C4.412 0.462914 4.34562 0.302671 4.22748 0.184523C4.10933 0.0663748 3.94909 2.65525e-08 3.782 2.65525e-08C3.61491 2.65525e-08 3.45467 0.0663748 3.33652 0.184523C3.21838 0.302671 3.152 0.462914 3.152 0.63V1.26H2.255C1.6571 1.26053 1.08384 1.49828 0.661059 1.92106C0.23828 2.34384 0.000529585 2.9171 0 3.515V14.751C0.000529585 15.3489 0.23828 15.9222 0.661059 16.3449C1.08384 16.7677 1.6571 17.0055 2.255 17.006ZM1.255 3.514C1.255 3.24878 1.36036 2.99443 1.54789 2.80689C1.73543 2.61936 1.98978 2.514 2.255 2.514H3.149V3.144C3.149 3.31109 3.21537 3.47133 3.33352 3.58948C3.45167 3.70763 3.61191 3.774 3.779 3.774C3.94609 3.774 4.10633 3.70763 4.22448 3.58948C4.34263 3.47133 4.409 3.31109 4.409 3.144V2.514H11.967V3.144C11.967 3.31109 12.0334 3.47133 12.1515 3.58948C12.2697 3.70763 12.4299 3.774 12.597 3.774C12.7641 3.774 12.9243 3.70763 13.0425 3.58948C13.1606 3.47133 13.227 3.31109 13.227 3.144V2.514H14.121C14.3862 2.514 14.6406 2.61936 14.8281 2.80689C15.0156 2.99443 15.121 3.24878 15.121 3.514V14.751C15.121 15.0162 15.0156 15.2706 14.8281 15.4581C14.6406 15.6456 14.3862 15.751 14.121 15.751H2.255C1.98978 15.751 1.73543 15.6456 1.54789 15.4581C1.36036 15.2706 1.255 15.0162 1.255 14.751V3.514Z" fill="#5A3392"/>
<path d="M4.56605 7.24301C5.0007 7.24301 5.35305 6.89065 5.35305 6.45601C5.35305 6.02136 5.0007 5.66901 4.56605 5.66901C4.1314 5.66901 3.77905 6.02136 3.77905 6.45601C3.77905 6.89065 4.1314 7.24301 4.56605 7.24301Z" fill="#5A3392"/>
<path d="M8.03004 7.24301C8.46469 7.24301 8.81704 6.89065 8.81704 6.45601C8.81704 6.02136 8.46469 5.66901 8.03004 5.66901C7.59539 5.66901 7.24304 6.02136 7.24304 6.45601C7.24304 6.89065 7.59539 7.24301 8.03004 7.24301Z" fill="#5A3392"/>
<path d="M11.495 7.24301C11.9297 7.24301 12.282 6.89065 12.282 6.45601C12.282 6.02136 11.9297 5.66901 11.495 5.66901C11.0604 5.66901 10.708 6.02136 10.708 6.45601C10.708 6.89065 11.0604 7.24301 11.495 7.24301Z" fill="#5A3392"/>
<path d="M4.56605 10.392C5.0007 10.392 5.35305 10.0396 5.35305 9.60499C5.35305 9.17035 5.0007 8.81799 4.56605 8.81799C4.1314 8.81799 3.77905 9.17035 3.77905 9.60499C3.77905 10.0396 4.1314 10.392 4.56605 10.392Z" fill="#5A3392"/>
<path d="M4.56605 13.541C5.0007 13.541 5.35305 13.1886 5.35305 12.754C5.35305 12.3193 5.0007 11.967 4.56605 11.967C4.1314 11.967 3.77905 12.3193 3.77905 12.754C3.77905 13.1886 4.1314 13.541 4.56605 13.541Z" fill="#5A3392"/>
<path d="M11.655 8.81799H8.19104C8.02412 8.81852 7.86417 8.88506 7.74614 9.0031C7.62811 9.12113 7.56156 9.28106 7.56104 9.44798V12.912C7.56156 13.0789 7.62811 13.2389 7.74614 13.3569C7.86417 13.4749 8.02412 13.5415 8.19104 13.542H11.655C11.822 13.5415 11.9819 13.4749 12.0999 13.3569C12.218 13.2389 12.2845 13.0789 12.285 12.912V9.45099C12.2853 9.28354 12.2191 9.12283 12.101 9.00415C11.9829 8.88547 11.8225 8.81852 11.655 8.81799ZM11.025 12.282H8.82504V10.082H11.025V12.282Z" fill="#5A3392"/>
</svg>
