<svg width="22" height="22" viewBox="0 0 22 22" fill="none" xmlns="http://www.w3.org/2000/svg">
<path d="M4 0.5H18C19.933 0.5 21.5 2.067 21.5 4V18C21.5 19.933 19.933 21.5 18 21.5H4C2.067 21.5 0.5 19.933 0.5 18V4C0.5 2.067 2.067 0.5 4 0.5Z" stroke="#5A3392"/>
<path d="M18 1H4C2.34315 1 1 2.34315 1 4V18C1 19.6569 2.34315 21 4 21H18C19.6569 21 21 19.6569 21 18V4C21 2.34315 19.6569 1 18 1Z" stroke="#5A3392" stroke-width="2"/>
<path d="M5.23999 11H16.778" stroke="#5A3392" stroke-width="2" stroke-linecap="round" stroke-linejoin="round"/>
<path d="M5.23999 6.189H12.891" stroke="#5A3392" stroke-width="2" stroke-linecap="round" stroke-linejoin="round"/>
<path d="M5.23999 15.811H12.891" stroke="#5A3392" stroke-width="2" stroke-linecap="round" stroke-linejoin="round"/>
</svg>
